<?xml version="1.0" encoding="UTF-8"?>
<svg width="24px" height="24px" xlink:href="data:image/png;base64" viewBox="0 0 24 24" version="1.1" xmlns="http://www.w3.org/2000/svg" xmlns:xlink="http://www.w3.org/1999/xlink">
    <!-- Generator: Sketch 56.2 (81672) - https://sketch.com -->
    <title>ban/ban096-red</title>
    <desc>Created with Sketch.</desc>
    <g id="ban/ban096-red" stroke="none" stroke-width="1" fill="none" fill-rule="evenodd">
        <rect id="padding" x="0" y="0" width="24" height="24"></rect>
        <path d="M3.71467784,19.2409443 L3.61462994,19.0781856 C2.88214795,17.6088881 2.5,15.9847799 2.5,14.3398668 L2.5,13.0824667 C2.5,12.004719 3.35301353,11.2884949 4.687,11.2884949 L4.79785203,11.3010922 C4.92185429,11.3296352 5.11919735,11.3729599 5.33403373,11.4161332 C5.40736812,11.4307649 5.40736812,11.4307649 5.48135273,11.4450373 C5.73960626,11.4943674 5.93839497,11.5239212 6.01073165,11.5244067 C6.08369605,11.5251058 6.2860742,11.4966003 6.54850827,11.4476024 C6.63112916,11.4319898 6.63112916,11.4319898 6.71287604,11.4159057 C6.9301641,11.3727886 7.12838968,11.329524 7.25235157,11.3010454 L7.363,11.2884949 C7.85313173,11.2884949 8.27425288,11.3855257 8.610571,11.5622806 C8.86670999,10.8079544 9.60971456,10.3423065 10.688,10.3423065 L10.8004647,10.3552778 C10.9221464,10.3837157 11.1168873,10.4269402 11.3304516,10.4700124 C11.4114173,10.4862019 11.4114173,10.4862019 11.4932439,10.5019065 C11.7490048,10.550397 11.946486,10.5786692 12.0170497,10.5782203 C12.085674,10.5775325 12.2699118,10.5491368 12.5080462,10.5015353 C12.5825476,10.4864749 12.5825476,10.4864749 12.6563655,10.4709768 C12.8595807,10.4279686 13.0455121,10.3847925 13.1618126,10.356406 L13.279,10.3423065 C14.3560888,10.3423065 15.1192111,10.8075078 15.3864914,11.565338 C15.723927,11.3866381 16.147313,11.2884949 16.6406,11.2884949 L16.7512484,11.3010454 C16.875222,11.3295267 17.0734292,11.3727938 17.2906395,11.4159133 C17.3720595,11.4319405 17.3720595,11.4319405 17.4543439,11.447501 C17.7168337,11.4965499 17.9192424,11.5251047 17.9932997,11.524395 C18.064205,11.5239212 18.2629937,11.4943674 18.5212473,11.4450373 C18.5952319,11.4307649 18.5952319,11.4307649 18.6685663,11.4161332 C18.8834027,11.3729599 19.0807457,11.3296352 19.204748,11.3010922 L19.3156,11.2884949 C20.6495865,11.2884949 21.5026,12.004719 21.5026,13.0824667 L21.5026,14.4674291 C21.5026,16.0274398 21.1602135,17.5675144 20.4823072,19.0108684 L20.3383097,19.2650036 C20.7518794,19.337318 21.1699992,19.4143685 21.593322,19.4960609 C21.8645804,19.548408 22.0425627,19.8134687 21.9908567,20.0880905 C21.9391507,20.3627123 21.6773364,20.5429016 21.406078,20.4905544 C20.8022417,20.3740268 20.209442,20.2671342 19.6257309,20.1701486 C19.5134755,20.1922251 19.3932603,20.1756334 19.2859479,20.1146509 C16.7274565,19.7040593 14.3382965,19.4871079 11.9514818,19.4871079 C9.6193792,19.4871079 7.29409955,19.6947608 4.78083108,20.0908587 C4.68155645,20.1433014 4.57157067,20.158746 4.46745412,20.1410622 C3.85474949,20.2407935 3.23053864,20.3515374 2.5920519,20.4730208 C2.32066077,20.5246578 2.05930743,20.3437839 2.00830288,20.0690277 C1.95729834,19.7942715 2.13595696,19.5296775 2.4073481,19.4780405 C2.84940535,19.3939313 3.28488431,19.3148685 3.71467784,19.2409443 Z M4.78401683,19.0659338 C6.06431615,18.8674666 7.29893322,18.7172627 8.513,18.6179178 L8.513,13.0824667 C8.513,12.6089466 8.18564918,12.3142871 7.41650081,12.3013394 C7.28508623,12.3309421 7.10319527,12.3701164 6.90521858,12.4094014 C6.81852769,12.4264589 6.81852769,12.4264589 6.72986903,12.4432128 C6.40166189,12.5044909 6.1616487,12.5382974 6.00269974,12.5367724 C5.84946782,12.5357484 5.61648233,12.5011106 5.29594922,12.4398842 C5.21688831,12.4246323 5.21688831,12.4246323 5.13933466,12.4091584 C4.94429162,12.3699627 4.76405132,12.3308805 4.63337684,12.3013459 C3.85216899,12.3146413 3.5,12.6205449 3.5,13.0824667 L3.5,14.3398668 C3.5,15.826271 3.8453857,17.2941417 4.48493823,18.5817223 L4.78401683,19.0659338 Z M9.513,18.5474011 C10.3294763,18.4992088 11.1396953,18.4747085 11.9514818,18.4747085 C12.79567,18.4747085 13.6393588,18.501142 14.4896,18.5529895 L14.4896,13.0824667 C14.4896,13.0659557 14.4897916,13.0495306 14.4901737,13.0331926 L14.4902945,12.1495986 C14.4742857,11.6775633 14.1150297,11.3693627 13.3356735,11.3552146 C13.2122746,11.3847026 13.0437851,11.4232678 12.8609891,11.4619546 C12.7822425,11.4784881 12.7822425,11.4784881 12.7017516,11.4947596 C12.4014114,11.5547956 12.1791998,11.589044 12.0251645,11.5905848 C11.8658891,11.5916054 11.6300196,11.5578373 11.3091728,11.497007 C11.2211283,11.4801086 11.2211283,11.4801086 11.1350781,11.4629018 C10.9410466,11.423769 10.7628063,11.3847494 10.6336165,11.3551657 C9.8625531,11.3683554 9.52846743,11.6644615 9.513,12.1322286 L9.513,14.3038254 L9.513,18.5474011 Z M15.4896,18.6253382 C16.7282997,18.7288248 17.9864695,18.884642 19.2854447,19.0897055 L19.5968423,18.5420555 C20.1931612,17.2692596 20.5026,15.8773855 20.5026,14.4674291 L20.5026,13.0824667 C20.5026,12.6205449 20.150431,12.3146413 19.3692232,12.3013459 C19.2385487,12.3308805 19.0583084,12.3699627 18.8632653,12.4091584 C18.7857117,12.4246323 18.7857117,12.4246323 18.7066508,12.4398842 C18.3861177,12.5011106 18.1531322,12.5357484 18.0013466,12.5367606 C17.8411809,12.5383 17.6012569,12.5044528 17.2728379,12.4430843 C17.1845551,12.4263891 17.1845551,12.4263891 17.0982205,12.4093938 C16.9003362,12.3701109 16.71849,12.3309388 16.5870933,12.3013385 C15.8325928,12.3140113 15.5029798,12.5971349 15.49,13.0540521 L15.49,14.3038254 C15.49,14.3106697 15.4898658,14.3174823 15.4896,14.3242606 L15.4896,18.6253382 Z M6.0081,4.46350549 C7.39410458,4.46350549 8.61055354,5.56923377 8.39103734,6.89793061 L8.15308314,8.77464112 C7.98501421,9.86150912 7.11702116,10.6006708 6.0081,10.6006708 C4.89926056,10.6006708 4.03387924,9.86148743 3.86519673,8.76101397 L3.63085254,6.91644392 C3.40987814,5.56904435 4.62362556,4.46350549 6.0081,4.46350549 Z M6.0081,5.47590491 C5.18631835,5.47590491 4.50940954,6.09246564 4.62000327,6.76886603 L4.85517441,8.6186464 C4.94585621,9.20964883 5.38911952,9.58827136 6.0081,9.58827136 C6.62798689,9.58827136 7.07379178,9.20863481 7.16316266,8.6319494 L7.40192835,6.75016018 C7.51033493,6.09290284 6.8315547,5.47590491 6.0081,5.47590491 Z M17.9945,4.46350549 C19.3789744,4.46350549 20.5927219,5.56904435 20.3744033,6.89819904 L20.135665,8.77345564 C19.9701016,9.86098215 19.1037517,10.6006708 17.9945,10.6006708 C16.8855788,10.6006708 16.0175858,9.86150912 15.8475627,8.76074555 L15.6143284,6.91690489 C15.3920806,5.5694409 16.6091731,4.46350549 17.9945,4.46350549 Z M17.9945,5.47590491 C17.1716671,5.47590491 16.4923159,6.09321092 16.6034373,6.76913446 L16.8374831,8.61805383 C16.9288082,9.20863481 17.3746131,9.58827136 17.9945,9.58827136 C18.6137808,9.58827136 19.057484,9.20943803 19.1455967,8.63168097 L19.3852525,6.75062115 C19.4931905,6.09246564 18.8162816,5.47590491 17.9945,5.47590491 Z M11.8651,3.4996 C13.2504269,3.4996 14.4675194,4.60553541 14.2480373,5.93402512 L14.0100831,7.81073563 C13.8420142,8.89760363 12.9740212,9.63676529 11.8651,9.63676529 C10.7561372,9.63676529 9.88986068,8.89746097 9.72116266,7.79684006 L9.48792835,5.9529994 C9.26567114,4.60547792 10.4802065,3.4996 11.8651,3.4996 Z M11.8651,4.51199942 C11.0430369,4.51199942 10.3658065,5.12864201 10.4770373,5.80522897 L10.7111744,7.65474091 C10.8018092,8.24543676 11.2458177,8.62436587 11.8651,8.62436587 C12.4849869,8.62436587 12.9307918,8.24472932 13.0201627,7.66804391 L13.2589284,5.7862547 C13.3672841,5.12930543 12.6879329,4.51199942 11.8651,4.51199942 Z" id="Combined-Shape" fill="#EC0000"></path>
    </g>
</svg>